
<svg version="1.1" id="Layer_1" xmlns="http://www.w3.org/2000/svg" xmlns:xlink="http://www.w3.org/1999/xlink" x="0px" y="0px"
	 viewBox="0 0 13 16" style="enable-background:new 0 0 13 16;" xml:space="preserve" fill="red'">
<g>
	<g>
		<path d="M12.5,16H2c-1.1,0-2-0.9-2-2V1.5C0,1.2,0.2,1,0.5,1S1,1.2,1,1.5V14c0,0.6,0.4,1,1,1h10V2.5C12,2.2,12.2,2,12.5,2
			S13,2.2,13,2.5v13C13,15.8,12.8,16,12.5,16z"/>
		<path d="M12.5,3h-11C0.7,3,0,2.3,0,1.5S0.7,0,1.5,0h9C10.8,0,11,0.2,11,0.5V2h1.5C12.8,2,13,2.2,13,2.5S12.8,3,12.5,3z M1.5,1
			C1.2,1,1,1.2,1,1.5S1.2,2,1.5,2H10V1H1.5z"/>
	</g>
	<path d="M4.5,8C3.7,8,3,7.1,3,6s0.7-2,1.5-2S6,4.9,6,6S5.3,8,4.5,8z M4.5,5C4.3,5,4,5.4,4,6s0.3,1,0.5,1S5,6.6,5,6S4.7,5,4.5,5z"/>
	<path d="M4.5,11C4.2,11,4,10.8,4,10.5v-3C4,7.2,4.2,7,4.5,7S5,7.2,5,7.5v3C5,10.8,4.8,11,4.5,11z"/>
	<path d="M7.5,11C7.2,11,7,10.8,7,10.5v-6C7,4.2,7.2,4,7.5,4S8,4.2,8,4.5v6C8,10.8,7.8,11,7.5,11z"/>
	<path d="M9.5,9h-2C7.2,9,7,8.8,7,8.5S7.2,8,7.5,8H9V6.5C9,5.7,8.3,5,7.5,5C7.2,5,7,4.8,7,4.5S7.2,4,7.5,4C8.9,4,10,5.1,10,6.5v2
		C10,8.8,9.8,9,9.5,9z"/>
	<path d="M9.5,13h-6C3.2,13,3,12.8,3,12.5S3.2,12,3.5,12h6c0.3,0,0.5,0.2,0.5,0.5S9.8,13,9.5,13z"/>
</g>
</svg>
